HIERARCHY
ROOT root
{
	OFFSET 0.000000 0.000000 0.000000
	CHANNELS 6 Xposition Yposition Zposition Zrotation Yrotation Xrotation
	JOINT lhip
	{
		OFFSET 0.058581 -0.082280 -0.017664
		CHANNELS 3 Zrotation Yrotation Xrotation
		JOINT lknee
		{
			OFFSET 0.043451 -0.386469 0.008037
			CHANNELS 3 Zrotation Yrotation Xrotation
			JOINT lankle
			{
				OFFSET -0.014790 -0.426874 -0.037428
				CHANNELS 3 Zrotation Yrotation Xrotation
				JOINT ltoe
				{
					OFFSET 0.041054 -0.060286 0.122042
					CHANNELS 3 Zrotation Yrotation Xrotation
					End Site
					{
						OFFSET 0.000000 0.000000 0.000000
					}
				}
			}
		}
	}
	JOINT rhip
	{
		OFFSET -0.060310 -0.090513 -0.013543
		CHANNELS 3 Zrotation Yrotation Xrotation
		JOINT rknee
		{
			OFFSET -0.043257 -0.383688 -0.004843
			CHANNELS 3 Zrotation Yrotation Xrotation
			JOINT rankle
			{
				OFFSET 0.019056 -0.420046 -0.034562
				CHANNELS 3 Zrotation Yrotation Xrotation
				JOINT rtoe
				{
					OFFSET -0.034840 -0.062106 0.130323
					CHANNELS 3 Zrotation Yrotation Xrotation
					End Site
					{
						OFFSET 0.000000 0.000000 0.000000
					}
				}
			}
		}
	}
	JOINT lowerback
	{
		OFFSET 0.004439 0.124404 -0.038385
		CHANNELS 3 Zrotation Yrotation Xrotation
		JOINT upperback
		{
			OFFSET 0.004488 0.137956 0.026820
			CHANNELS 3 Zrotation Yrotation Xrotation
			JOINT chest
			{
				OFFSET -0.002265 0.056032 0.002855
				CHANNELS 3 Zrotation Yrotation Xrotation
				JOINT lowerneck
				{
					OFFSET -0.013390 0.211636 -0.033468
					CHANNELS 3 Zrotation Yrotation Xrotation
					JOINT upperneck
					{
						OFFSET 0.010113 0.088937 0.050410
						CHANNELS 3 Zrotation Yrotation Xrotation
						End Site
						{
							OFFSET 0.000000 0.000000 0.000000
						}
					}
				}
				JOINT lclavicle
				{
					OFFSET 0.071702 0.114000 -0.018898
					CHANNELS 3 Zrotation Yrotation Xrotation
					JOINT lshoulder
					{
						OFFSET 0.122921 0.045205 -0.019046
						CHANNELS 3 Zrotation Yrotation Xrotation
						JOINT lelbow
						{
							OFFSET 0.255332 -0.015649 -0.022946
							CHANNELS 3 Zrotation Yrotation Xrotation
							JOINT lwrist
							{
								OFFSET 0.265709 0.012698 -0.007375
								CHANNELS 3 Zrotation Yrotation Xrotation
								End Site
								{
									OFFSET 0.000000 0.000000 0.000000
								}
							}
						}
					}
				}
				JOINT rclavicle
				{
					OFFSET -0.082954 0.112472 -0.023707
					CHANNELS 3 Zrotation Yrotation Xrotation
					JOINT rshoulder
					{
						OFFSET -0.113228 0.046853 -0.008472
						CHANNELS 3 Zrotation Yrotation Xrotation
						JOINT relbow
						{
							OFFSET -0.260127 -0.014369 -0.031269
							CHANNELS 3 Zrotation Yrotation Xrotation
							JOINT rwrist
							{
								OFFSET -0.269108 0.006794 -0.006027
								CHANNELS 3 Zrotation Yrotation Xrotation
								End Site
								{
									OFFSET 0.000000 0.000000 0.000000
								}
							}
						}
					}
				}
			}
		}
	}
}
MOTION
Frames: 11
Frame Time: 0.033333
0.309039 -0.329320 0.946309 -178.958570 0.203304 90.990167 8.228873 -0.506320 -21.791252 -5.828749 -0.908029 29.855383 0.486121 0.958445 -15.484867 0.000000 -0.000000 0.000000 -7.552111 -4.566565 -22.581149 -0.968176 -7.622303 30.354355 2.328341 2.154628 -15.309867 0.000000 -0.000000 0.000000 2.761357 3.025242 17.833852 2.245235 -4.277131 10.413173 0.621061 -0.654340 -4.014093 3.527441 8.303983 20.742769 4.766197 1.298295 16.841489 -17.543571 -24.182349 2.609438 -74.629810 -24.568948 24.323875 2.148796 -25.045628 9.302925 -14.596368 0.706474 -32.077293 15.952271 23.943640 6.562879 74.395574 25.874752 21.942441 -9.282690 21.664625 -8.725047 6.940709 0.332839 -48.195431 
0.309008 -0.328915 0.946203 -179.016688 0.238513 90.912726 8.206206 -0.543425 -21.745727 -5.657708 -0.843498 29.990788 0.583524 0.838924 -15.546732 0.000000 -0.000000 0.000000 -7.512516 -4.500874 -22.484477 -1.006975 -7.645126 30.368481 2.298986 2.154711 -15.410847 0.000000 -0.000000 0.000000 2.749448 3.075060 18.088994 2.151882 -4.219201 10.013883 0.637353 -0.578516 -3.799832 3.682742 8.236603 20.652992 4.887504 1.289694 17.430257 -17.529490 -24.330330 2.844815 -74.637761 -24.703370 24.116159 2.307547 -24.968264 9.180864 -14.941367 0.452913 -31.832569 16.082273 24.022400 6.850663 74.261649 26.084054 21.701600 -9.191087 21.624165 -8.819083 6.699828 0.544458 -48.335533 
0.309120 -0.328603 0.946276 -179.276017 0.236987 90.786363 8.162962 -0.504876 -21.516300 -5.650115 -0.911579 30.006005 0.705936 1.132348 -15.718145 0.000000 -0.000000 0.000000 -7.489805 -4.251185 -22.400072 -1.011338 -7.538750 30.430886 2.351229 2.142916 -15.408966 0.000000 -0.000000 0.000000 2.577891 3.067420 18.287817 2.104932 -4.012634 10.018004 0.647157 -0.454786 -3.809705 3.769571 8.365884 20.700324 4.870434 1.160319 17.589607 -17.384874 -24.338875 2.797667 -74.675989 -24.753448 24.192198 2.249887 -24.957238 9.117366 -14.815846 0.462848 -31.864212 16.268887 24.072245 6.956230 74.205685 26.291819 21.721811 -9.138428 21.449894 -9.134437 6.185290 0.466995 -48.246446 
0.309121 -0.327955 0.946147 -179.324549 0.315482 90.707439 8.204880 -0.486690 -21.489665 -5.681706 -0.915131 30.163841 0.802703 1.341217 -15.702833 0.000000 -0.000000 0.000000 -7.404762 -4.251460 -22.304622 -1.028582 -7.541736 30.480625 2.326211 2.206166 -15.481095 0.000000 -0.000000 0.000000 2.534941 3.067329 18.427507 2.125181 -4.021989 9.961270 0.660029 -0.391289 -3.800639 3.743785 8.482192 20.699126 4.886245 1.010047 17.725991 -17.188044 -24.314621 2.708173 -74.803861 -24.661296 24.293950 2.284460 -25.051316 9.178179 -14.529391 0.699261 -32.009695 16.149427 24.147612 6.883061 74.270684 26.291713 21.749621 -9.031122 21.355154 -9.044035 6.471570 0.469051 -48.326003 
0.308971 -0.327470 0.946246 -179.353234 0.414804 90.661684 8.287604 -0.440320 -21.405373 -5.661244 -1.072868 30.218777 0.838075 1.228317 -15.752246 0.000000 -0.000000 0.000000 -7.290985 -4.317602 -22.207724 -0.997202 -7.507590 30.434040 2.322150 2.202345 -15.497198 0.000000 -0.000000 0.000000 2.618771 3.119360 18.545213 2.119126 -3.944871 9.803103 0.687325 -0.423471 -3.773709 3.702632 8.345052 20.827623 4.964534 1.070439 17.738815 -17.217813 -24.370228 2.822755 -74.847725 -24.714414 24.233747 2.302398 -24.967346 9.158424 -14.526318 0.752424 -31.957747 16.107473 24.093994 6.833403 74.291744 26.136882 21.636173 -9.027681 21.463107 -8.992756 6.751619 0.517039 -48.146256 
0.308884 -0.327180 0.946302 -179.374010 0.429028 90.714431 8.328046 -0.428798 -21.465816 -5.681921 -0.841309 30.242035 0.837586 1.242359 -15.764529 0.000000 -0.000000 0.000000 -7.272091 -4.327432 -22.225981 -1.013981 -7.548764 30.390106 2.331365 2.249738 -15.481388 0.000000 -0.000000 0.000000 2.577411 3.140034 18.403437 2.142539 -4.020713 9.950879 0.656736 -0.365519 -3.797873 3.726994 8.519236 20.832894 4.885314 1.038611 17.671395 -17.183592 -24.381008 2.833217 -74.836875 -24.783093 24.224915 2.346180 -24.903806 9.101037 -14.659093 0.603519 -31.842319 16.226333 24.097875 6.885778 74.322255 26.219080 21.649659 -9.172213 21.305074 -9.041470 6.695827 0.470650 -48.095737 
0.308562 -0.326990 0.946350 -179.396201 0.406303 90.861951 8.310425 -0.531446 -21.586463 -5.606920 -0.885375 30.292279 0.765880 1.037873 -15.857600 0.000000 -0.000000 0.000000 -7.353469 -4.238621 -22.350693 -0.981220 -7.603008 30.360789 2.413131 2.289707 -15.450453 0.000000 -0.000000 0.000000 2.519017 3.157987 18.191468 2.155185 -4.052270 10.053634 0.649568 -0.363841 -3.891317 3.726474 8.541410 20.875528 4.834357 1.082807 17.715741 -17.252398 -24.422222 2.916864 -74.808079 -24.816398 24.164966 2.374027 -24.798200 9.213390 -15.056930 0.436549 -31.719354 16.281383 24.159064 6.957140 74.382687 26.230726 21.673483 -9.341224 21.079060 -9.107903 7.060583 0.678634 -48.258822 
0.308001 -0.326611 0.946449 -179.276534 0.374179 90.876086 8.231303 -0.625543 -21.604553 -5.607406 -0.746846 30.288773 0.912860 1.122777 -15.876531 0.000000 -0.000000 0.000000 -7.463472 -4.383364 -22.267303 -0.933179 -7.726518 30.275883 2.401639 2.341096 -15.459744 0.000000 -0.000000 0.000000 2.599370 3.103660 18.114576 2.115889 -4.231931 10.149622 0.595547 -0.330491 -3.977641 3.639184 8.625349 20.960029 4.841068 1.243498 17.705089 -17.261017 -24.529377 3.005543 -74.819276 -24.787535 24.118995 2.489882 -24.835874 9.093486 -14.865769 0.479193 -31.785798 16.210774 24.219738 7.076902 74.420345 26.271063 21.614770 -9.329123 21.136727 -9.099654 6.842909 0.627381 -48.504195 
0.307649 -0.326255 0.946487 -179.283014 0.361151 90.852724 8.143204 -0.537946 -21.533932 -5.523490 -0.919239 30.276369 0.832142 0.941671 -15.941525 0.000000 -0.000000 0.000000 -7.483501 -4.454691 -22.202695 -0.943842 -7.658229 30.251281 2.464632 2.410955 -15.423700 0.000000 -0.000000 0.000000 2.649177 3.166602 18.225097 2.053614 -4.174725 9.989286 0.609380 -0.408715 -3.979814 3.650521 8.524750 20.973133 4.860372 1.255052 17.809279 -17.176492 -24.597282 3.071663 -74.958466 -24.826290 24.062607 2.512846 -24.787585 9.091897 -15.099609 0.474644 -31.708929 16.142323 24.135838 7.117674 74.385895 26.226805 21.432568 -9.120712 21.403124 -9.025110 7.015528 0.615399 -48.631754 
0.307386 -0.325906 0.946578 -179.285773 0.400240 90.891638 8.211993 -0.402551 -21.571497 -5.651103 -0.696394 30.225941 0.873613 1.061947 -15.832252 0.000000 -0.000000 0.000000 -7.466811 -4.463120 -22.201126 -0.914798 -7.644090 30.187162 2.395361 2.439465 -15.430754 0.000000 -0.000000 0.000000 2.676711 3.138975 18.146882 2.057547 -4.130280 9.881916 0.601297 -0.403616 -3.846996 3.548507 8.596000 21.041992 4.951264 1.226112 17.892597 -17.226112 -24.675968 3.081190 -74.910105 -24.858982 24.097522 2.475335 -24.704461 9.173590 -15.289068 0.429195 -31.679763 16.095208 24.120933 7.124424 74.347096 26.238940 21.415036 -9.060091 21.419627 -8.911187 6.965771 0.580529 -48.779096 
0.307234 -0.325580 0.946722 -179.286756 0.436109 90.863720 8.197740 -0.330821 -21.499528 -5.616407 -0.726612 30.195030 0.949494 1.044941 -15.835991 0.000000 -0.000000 0.000000 -7.436095 -4.435949 -22.120730 -0.926548 -7.666115 30.122723 2.393243 2.415799 -15.397445 0.000000 -0.000000 0.000000 2.637554 3.098948 18.173190 2.069326 -4.118151 9.889457 0.641246 -0.338714 -3.928879 3.512394 8.520267 21.178133 5.009122 1.268420 17.801648 -17.204456 -24.752483 3.072000 -74.935961 -24.834466 24.123542 2.370795 -24.689945 9.143750 -15.097358 0.434278 -31.557247 16.067887 24.240546 7.151084 74.331299 26.127696 21.368468 -9.143401 21.491371 -9.075441 6.950780 0.443644 -48.809444 
